<svg xmlns="http://www.w3.org/2000/svg" width="400" height="900" viewBox="0 0 400 900" role="img" aria-labelledby="title desc">
  <title id="title">@leonw24/open-codex cumulative npm downloads</title>
  <desc id="desc">Cumulative npm downloads sampled at weekly boundaries across 16 complete 7-day periods. Latest cumulative total: 12610 downloads.</desc>
  <defs>
    <linearGradient id="line" x1="0" x2="0" y1="1" y2="0">
      <stop offset="0%" stop-color="#22d3ee" />
      <stop offset="55%" stop-color="#8b5cf6" />
      <stop offset="100%" stop-color="#f472b6" />
    </linearGradient>
    <linearGradient id="fill" x1="0" x2="0" y1="0" y2="1">
      <stop offset="0%" stop-color="#8b5cf6" stop-opacity="0.22" />
      <stop offset="100%" stop-color="#8b5cf6" stop-opacity="0" />
    </linearGradient>
  </defs>
  <rect width="400" height="900" rx="22" fill="#0b1020" />
  <rect x="1" y="1" width="398" height="898" rx="21" fill="none" stroke="#26324a" />
  <g font-family="Inter, ui-sans-serif, system-ui, -apple-system, BlinkMacSystemFont, Segoe UI, sans-serif">
    <text x="200.0" y="60" font-size="32" font-weight="700" fill="#f8fafc" text-anchor="middle">npm downloads</text>
    <text x="200.0" y="98" font-size="22" fill="#8b9ab8" text-anchor="middle">cumulative · 16 weeks</text>
    <line x1="32" y1="730.0" x2="368" y2="730.0" stroke="#243047" stroke-width="1" />
    <line x1="32" y1="580.0" x2="368" y2="580.0" stroke="#243047" stroke-width="1" />
    <line x1="32" y1="430.0" x2="368" y2="430.0" stroke="#243047" stroke-width="1" />
    <line x1="32" y1="280.0" x2="368" y2="280.0" stroke="#243047" stroke-width="1" />
    <line x1="32" y1="130.0" x2="368" y2="130.0" stroke="#243047" stroke-width="1" />
    <line x1="32" y1="730.0" x2="368" y2="730.0" stroke="#3a4867" stroke-width="1.4" />
    <path d="M 32.0 691.7 L 54.4 688.6 L 76.8 431.3 L 99.2 310.4 L 121.6 246.8 L 144.0 231.2 L 166.4 224.0 L 188.8 223.1 L 211.2 220.3 L 233.6 215.9 L 256.0 210.6 L 278.4 201.8 L 300.8 196.0 L 323.2 182.7 L 345.6 182.3 L 368.0 174.1 L 368.0 730.0 L 32.0 730.0 Z" fill="url(#fill)" />
    <path d="M 32.0 691.7 L 54.4 688.6 L 76.8 431.3 L 99.2 310.4 L 121.6 246.8 L 144.0 231.2 L 166.4 224.0 L 188.8 223.1 L 211.2 220.3 L 233.6 215.9 L 256.0 210.6 L 278.4 201.8 L 300.8 196.0 L 323.2 182.7 L 345.6 182.3 L 368.0 174.1" fill="none" stroke="url(#line)" stroke-width="6" stroke-linecap="round" stroke-linejoin="round" />
    <circle cx="32.0" cy="691.7" r="8" fill="#8b5cf6" stroke="#dbe7ff" stroke-width="3"><title>869 downloads</title></circle>
    <circle cx="54.4" cy="688.6" r="8" fill="#8b5cf6" stroke="#dbe7ff" stroke-width="3"><title>939 downloads</title></circle>
    <circle cx="76.8" cy="431.3" r="8" fill="#8b5cf6" stroke="#dbe7ff" stroke-width="3"><title>6776 downloads</title></circle>
    <circle cx="99.2" cy="310.4" r="8" fill="#8b5cf6" stroke="#dbe7ff" stroke-width="3"><title>9519 downloads</title></circle>
    <circle cx="121.6" cy="246.8" r="8" fill="#8b5cf6" stroke="#dbe7ff" stroke-width="3"><title>10961 downloads</title></circle>
    <circle cx="144.0" cy="231.2" r="8" fill="#8b5cf6" stroke="#dbe7ff" stroke-width="3"><title>11314 downloads</title></circle>
    <circle cx="166.4" cy="224.0" r="8" fill="#8b5cf6" stroke="#dbe7ff" stroke-width="3"><title>11477 downloads</title></circle>
    <circle cx="188.8" cy="223.1" r="8" fill="#8b5cf6" stroke="#dbe7ff" stroke-width="3"><title>11499 downloads</title></circle>
    <circle cx="211.2" cy="220.3" r="8" fill="#8b5cf6" stroke="#dbe7ff" stroke-width="3"><title>11561 downloads</title></circle>
    <circle cx="233.6" cy="215.9" r="8" fill="#8b5cf6" stroke="#dbe7ff" stroke-width="3"><title>11662 downloads</title></circle>
    <circle cx="256.0" cy="210.6" r="8" fill="#8b5cf6" stroke="#dbe7ff" stroke-width="3"><title>11781 downloads</title></circle>
    <circle cx="278.4" cy="201.8" r="8" fill="#8b5cf6" stroke="#dbe7ff" stroke-width="3"><title>11981 downloads</title></circle>
    <circle cx="300.8" cy="196.0" r="8" fill="#8b5cf6" stroke="#dbe7ff" stroke-width="3"><title>12113 downloads</title></circle>
    <circle cx="323.2" cy="182.7" r="8" fill="#8b5cf6" stroke="#dbe7ff" stroke-width="3"><title>12415 downloads</title></circle>
    <circle cx="345.6" cy="182.3" r="8" fill="#8b5cf6" stroke="#dbe7ff" stroke-width="3"><title>12424 downloads</title></circle>
    <circle cx="368.0" cy="174.1" r="8" fill="#8b5cf6" stroke="#dbe7ff" stroke-width="3"><title>12610 downloads</title></circle>
    <text x="32.0" y="766" font-size="24" fill="#8b9ab8" text-anchor="start">Apr 24</text>
    <text x="211.2" y="766" font-size="24" fill="#8b9ab8" text-anchor="middle">Jun 19</text>
    <text x="368.0" y="766" font-size="24" fill="#8b9ab8" text-anchor="end">Aug 7</text>
    <text x="200.0" y="830" font-size="56" font-weight="800" fill="#f8fafc" text-anchor="middle">12.6k</text>
    <text x="200.0" y="862" font-size="20" fill="#22d3ee" text-anchor="middle">+11.7k since 869</text>
    <text x="200.0" y="890" font-size="16" fill="#5d6b88" text-anchor="middle">through 2026-08-13</text>
  </g>
</svg>
