<svg xmlns="http://www.w3.org/2000/svg" width="400" height="900" viewBox="0 0 400 900" role="img" aria-labelledby="title desc">
  <title id="title">@leonw24/open-codex cumulative npm downloads</title>
  <desc id="desc">Cumulative npm downloads sampled at weekly boundaries across 10 complete 7-day periods. Latest cumulative total: 11589 downloads.</desc>
  <defs>
    <linearGradient id="line" x1="0" x2="0" y1="1" y2="0">
      <stop offset="0%" stop-color="#22d3ee" />
      <stop offset="55%" stop-color="#8b5cf6" />
      <stop offset="100%" stop-color="#f472b6" />
    </linearGradient>
    <linearGradient id="fill" x1="0" x2="0" y1="0" y2="1">
      <stop offset="0%" stop-color="#8b5cf6" stop-opacity="0.22" />
      <stop offset="100%" stop-color="#8b5cf6" stop-opacity="0" />
    </linearGradient>
  </defs>
  <rect width="400" height="900" rx="22" fill="#0b1020" />
  <rect x="1" y="1" width="398" height="898" rx="21" fill="none" stroke="#26324a" />
  <g font-family="Inter, ui-sans-serif, system-ui, -apple-system, BlinkMacSystemFont, Segoe UI, sans-serif">
    <text x="200.0" y="60" font-size="32" font-weight="700" fill="#f8fafc" text-anchor="middle">npm downloads</text>
    <text x="200.0" y="98" font-size="22" fill="#8b9ab8" text-anchor="middle">cumulative · 10 weeks</text>
    <line x1="32" y1="730.0" x2="368" y2="730.0" stroke="#243047" stroke-width="1" />
    <line x1="32" y1="580.0" x2="368" y2="580.0" stroke="#243047" stroke-width="1" />
    <line x1="32" y1="430.0" x2="368" y2="430.0" stroke="#243047" stroke-width="1" />
    <line x1="32" y1="280.0" x2="368" y2="280.0" stroke="#243047" stroke-width="1" />
    <line x1="32" y1="130.0" x2="368" y2="130.0" stroke="#243047" stroke-width="1" />
    <line x1="32" y1="730.0" x2="368" y2="730.0" stroke="#3a4867" stroke-width="1.4" />
    <path d="M 32.0 729.1 L 69.3 685.8 L 106.7 566.4 L 144.0 352.1 L 181.3 239.3 L 218.7 200.6 L 256.0 185.1 L 293.3 183.0 L 330.7 180.0 L 368.0 177.7 L 368.0 730.0 L 32.0 730.0 Z" fill="url(#fill)" />
    <path d="M 32.0 729.1 L 69.3 685.8 L 106.7 566.4 L 144.0 352.1 L 181.3 239.3 L 218.7 200.6 L 256.0 185.1 L 293.3 183.0 L 330.7 180.0 L 368.0 177.7" fill="none" stroke="url(#line)" stroke-width="6" stroke-linecap="round" stroke-linejoin="round" />
    <circle cx="32.0" cy="729.1" r="8" fill="#8b5cf6" stroke="#dbe7ff" stroke-width="3"><title>18 downloads</title></circle>
    <circle cx="69.3" cy="685.8" r="8" fill="#8b5cf6" stroke="#dbe7ff" stroke-width="3"><title>927 downloads</title></circle>
    <circle cx="106.7" cy="566.4" r="8" fill="#8b5cf6" stroke="#dbe7ff" stroke-width="3"><title>3433 downloads</title></circle>
    <circle cx="144.0" cy="352.1" r="8" fill="#8b5cf6" stroke="#dbe7ff" stroke-width="3"><title>7928 downloads</title></circle>
    <circle cx="181.3" cy="239.3" r="8" fill="#8b5cf6" stroke="#dbe7ff" stroke-width="3"><title>10296 downloads</title></circle>
    <circle cx="218.7" cy="200.6" r="8" fill="#8b5cf6" stroke="#dbe7ff" stroke-width="3"><title>11107 downloads</title></circle>
    <circle cx="256.0" cy="185.1" r="8" fill="#8b5cf6" stroke="#dbe7ff" stroke-width="3"><title>11433 downloads</title></circle>
    <circle cx="293.3" cy="183.0" r="8" fill="#8b5cf6" stroke="#dbe7ff" stroke-width="3"><title>11478 downloads</title></circle>
    <circle cx="330.7" cy="180.0" r="8" fill="#8b5cf6" stroke="#dbe7ff" stroke-width="3"><title>11539 downloads</title></circle>
    <circle cx="368.0" cy="177.7" r="8" fill="#8b5cf6" stroke="#dbe7ff" stroke-width="3"><title>11589 downloads</title></circle>
    <text x="32.0" y="766" font-size="24" fill="#8b9ab8" text-anchor="start">Apr 20</text>
    <text x="218.66666666666666" y="766" font-size="24" fill="#8b9ab8" text-anchor="middle">May 25</text>
    <text x="368.0" y="766" font-size="24" fill="#8b9ab8" text-anchor="end">Jun 22</text>
    <text x="200.0" y="830" font-size="56" font-weight="800" fill="#f8fafc" text-anchor="middle">11.6k</text>
    <text x="200.0" y="862" font-size="20" fill="#22d3ee" text-anchor="middle">+11.6k since 18</text>
    <text x="200.0" y="890" font-size="16" fill="#5d6b88" text-anchor="middle">through 2026-06-28</text>
  </g>
</svg>
