<svg xmlns="http://www.w3.org/2000/svg" width="400" height="900" viewBox="0 0 400 900" role="img" aria-labelledby="title desc">
  <title id="title">@leonw24/open-codex cumulative npm downloads</title>
  <desc id="desc">Cumulative npm downloads sampled at weekly boundaries across 12 complete 7-day periods. Latest cumulative total: 11981 downloads.</desc>
  <defs>
    <linearGradient id="line" x1="0" x2="0" y1="1" y2="0">
      <stop offset="0%" stop-color="#22d3ee" />
      <stop offset="55%" stop-color="#8b5cf6" />
      <stop offset="100%" stop-color="#f472b6" />
    </linearGradient>
    <linearGradient id="fill" x1="0" x2="0" y1="0" y2="1">
      <stop offset="0%" stop-color="#8b5cf6" stop-opacity="0.22" />
      <stop offset="100%" stop-color="#8b5cf6" stop-opacity="0" />
    </linearGradient>
  </defs>
  <rect width="400" height="900" rx="22" fill="#0b1020" />
  <rect x="1" y="1" width="398" height="898" rx="21" fill="none" stroke="#26324a" />
  <g font-family="Inter, ui-sans-serif, system-ui, -apple-system, BlinkMacSystemFont, Segoe UI, sans-serif">
    <text x="200.0" y="60" font-size="32" font-weight="700" fill="#f8fafc" text-anchor="middle">npm downloads</text>
    <text x="200.0" y="98" font-size="22" fill="#8b9ab8" text-anchor="middle">cumulative · 12 weeks</text>
    <line x1="32" y1="730.0" x2="368" y2="730.0" stroke="#243047" stroke-width="1" />
    <line x1="32" y1="580.0" x2="368" y2="580.0" stroke="#243047" stroke-width="1" />
    <line x1="32" y1="430.0" x2="368" y2="430.0" stroke="#243047" stroke-width="1" />
    <line x1="32" y1="280.0" x2="368" y2="280.0" stroke="#243047" stroke-width="1" />
    <line x1="32" y1="130.0" x2="368" y2="130.0" stroke="#243047" stroke-width="1" />
    <line x1="32" y1="730.0" x2="368" y2="730.0" stroke="#3a4867" stroke-width="1.4" />
    <path d="M 32.0 688.4 L 62.5 678.8 L 93.1 402.0 L 123.6 278.4 L 154.2 221.8 L 184.7 206.4 L 215.3 199.5 L 245.8 197.9 L 276.4 195.0 L 306.9 189.9 L 337.5 180.2 L 368.0 176.2 L 368.0 730.0 L 32.0 730.0 Z" fill="url(#fill)" />
    <path d="M 32.0 688.4 L 62.5 678.8 L 93.1 402.0 L 123.6 278.4 L 154.2 221.8 L 184.7 206.4 L 215.3 199.5 L 245.8 197.9 L 276.4 195.0 L 306.9 189.9 L 337.5 180.2 L 368.0 176.2" fill="none" stroke="url(#line)" stroke-width="6" stroke-linecap="round" stroke-linejoin="round" />
    <circle cx="32.0" cy="688.4" r="8" fill="#8b5cf6" stroke="#dbe7ff" stroke-width="3"><title>899 downloads</title></circle>
    <circle cx="62.5" cy="678.8" r="8" fill="#8b5cf6" stroke="#dbe7ff" stroke-width="3"><title>1107 downloads</title></circle>
    <circle cx="93.1" cy="402.0" r="8" fill="#8b5cf6" stroke="#dbe7ff" stroke-width="3"><title>7097 downloads</title></circle>
    <circle cx="123.6" cy="278.4" r="8" fill="#8b5cf6" stroke="#dbe7ff" stroke-width="3"><title>9770 downloads</title></circle>
    <circle cx="154.2" cy="221.8" r="8" fill="#8b5cf6" stroke="#dbe7ff" stroke-width="3"><title>10995 downloads</title></circle>
    <circle cx="184.7" cy="206.4" r="8" fill="#8b5cf6" stroke="#dbe7ff" stroke-width="3"><title>11329 downloads</title></circle>
    <circle cx="215.3" cy="199.5" r="8" fill="#8b5cf6" stroke="#dbe7ff" stroke-width="3"><title>11478 downloads</title></circle>
    <circle cx="245.8" cy="197.9" r="8" fill="#8b5cf6" stroke="#dbe7ff" stroke-width="3"><title>11512 downloads</title></circle>
    <circle cx="276.4" cy="195.0" r="8" fill="#8b5cf6" stroke="#dbe7ff" stroke-width="3"><title>11574 downloads</title></circle>
    <circle cx="306.9" cy="189.9" r="8" fill="#8b5cf6" stroke="#dbe7ff" stroke-width="3"><title>11684 downloads</title></circle>
    <circle cx="337.5" cy="180.2" r="8" fill="#8b5cf6" stroke="#dbe7ff" stroke-width="3"><title>11894 downloads</title></circle>
    <circle cx="368.0" cy="176.2" r="8" fill="#8b5cf6" stroke="#dbe7ff" stroke-width="3"><title>11981 downloads</title></circle>
    <text x="32.0" y="766" font-size="24" fill="#8b9ab8" text-anchor="start">Apr 25</text>
    <text x="215.27272727272728" y="766" font-size="24" fill="#8b9ab8" text-anchor="middle">Jun 6</text>
    <text x="368.0" y="766" font-size="24" fill="#8b9ab8" text-anchor="end">Jul 11</text>
    <text x="200.0" y="830" font-size="56" font-weight="800" fill="#f8fafc" text-anchor="middle">12.0k</text>
    <text x="200.0" y="862" font-size="20" fill="#22d3ee" text-anchor="middle">+11.1k since 899</text>
    <text x="200.0" y="890" font-size="16" fill="#5d6b88" text-anchor="middle">through 2026-07-17</text>
  </g>
</svg>
