<svg xmlns="http://www.w3.org/2000/svg" width="400" height="900" viewBox="0 0 400 900" role="img" aria-labelledby="title desc">
  <title id="title">@leonw24/open-codex cumulative npm downloads</title>
  <desc id="desc">Cumulative npm downloads sampled at weekly boundaries across 11 complete 7-day periods. Latest cumulative total: 11685 downloads.</desc>
  <defs>
    <linearGradient id="line" x1="0" x2="0" y1="1" y2="0">
      <stop offset="0%" stop-color="#22d3ee" />
      <stop offset="55%" stop-color="#8b5cf6" />
      <stop offset="100%" stop-color="#f472b6" />
    </linearGradient>
    <linearGradient id="fill" x1="0" x2="0" y1="0" y2="1">
      <stop offset="0%" stop-color="#8b5cf6" stop-opacity="0.22" />
      <stop offset="100%" stop-color="#8b5cf6" stop-opacity="0" />
    </linearGradient>
  </defs>
  <rect width="400" height="900" rx="22" fill="#0b1020" />
  <rect x="1" y="1" width="398" height="898" rx="21" fill="none" stroke="#26324a" />
  <g font-family="Inter, ui-sans-serif, system-ui, -apple-system, BlinkMacSystemFont, Segoe UI, sans-serif">
    <text x="200.0" y="60" font-size="32" font-weight="700" fill="#f8fafc" text-anchor="middle">npm downloads</text>
    <text x="200.0" y="98" font-size="22" fill="#8b9ab8" text-anchor="middle">cumulative · 11 weeks</text>
    <line x1="32" y1="730.0" x2="368" y2="730.0" stroke="#243047" stroke-width="1" />
    <line x1="32" y1="580.0" x2="368" y2="580.0" stroke="#243047" stroke-width="1" />
    <line x1="32" y1="430.0" x2="368" y2="430.0" stroke="#243047" stroke-width="1" />
    <line x1="32" y1="280.0" x2="368" y2="280.0" stroke="#243047" stroke-width="1" />
    <line x1="32" y1="130.0" x2="368" y2="130.0" stroke="#243047" stroke-width="1" />
    <line x1="32" y1="730.0" x2="368" y2="730.0" stroke="#3a4867" stroke-width="1.4" />
    <path d="M 32.0 729.7 L 65.6 686.9 L 99.2 639.5 L 132.8 380.6 L 166.4 264.9 L 200.0 205.0 L 233.6 189.5 L 267.2 187.1 L 300.8 184.4 L 334.4 182.1 L 368.0 177.3 L 368.0 730.0 L 32.0 730.0 Z" fill="url(#fill)" />
    <path d="M 32.0 729.7 L 65.6 686.9 L 99.2 639.5 L 132.8 380.6 L 166.4 264.9 L 200.0 205.0 L 233.6 189.5 L 267.2 187.1 L 300.8 184.4 L 334.4 182.1 L 368.0 177.3" fill="none" stroke="url(#line)" stroke-width="6" stroke-linecap="round" stroke-linejoin="round" />
    <circle cx="32.0" cy="729.7" r="8" fill="#8b5cf6" stroke="#dbe7ff" stroke-width="3"><title>6 downloads</title></circle>
    <circle cx="65.6" cy="686.9" r="8" fill="#8b5cf6" stroke="#dbe7ff" stroke-width="3"><title>911 downloads</title></circle>
    <circle cx="99.2" cy="639.5" r="8" fill="#8b5cf6" stroke="#dbe7ff" stroke-width="3"><title>1913 downloads</title></circle>
    <circle cx="132.8" cy="380.6" r="8" fill="#8b5cf6" stroke="#dbe7ff" stroke-width="3"><title>7386 downloads</title></circle>
    <circle cx="166.4" cy="264.9" r="8" fill="#8b5cf6" stroke="#dbe7ff" stroke-width="3"><title>9833 downloads</title></circle>
    <circle cx="200.0" cy="205.0" r="8" fill="#8b5cf6" stroke="#dbe7ff" stroke-width="3"><title>11100 downloads</title></circle>
    <circle cx="233.6" cy="189.5" r="8" fill="#8b5cf6" stroke="#dbe7ff" stroke-width="3"><title>11427 downloads</title></circle>
    <circle cx="267.2" cy="187.1" r="8" fill="#8b5cf6" stroke="#dbe7ff" stroke-width="3"><title>11478 downloads</title></circle>
    <circle cx="300.8" cy="184.4" r="8" fill="#8b5cf6" stroke="#dbe7ff" stroke-width="3"><title>11535 downloads</title></circle>
    <circle cx="334.4" cy="182.1" r="8" fill="#8b5cf6" stroke="#dbe7ff" stroke-width="3"><title>11584 downloads</title></circle>
    <circle cx="368.0" cy="177.3" r="8" fill="#8b5cf6" stroke="#dbe7ff" stroke-width="3"><title>11685 downloads</title></circle>
    <text x="32.0" y="766" font-size="24" fill="#8b9ab8" text-anchor="start">Apr 19</text>
    <text x="200.0" y="766" font-size="24" fill="#8b9ab8" text-anchor="middle">May 24</text>
    <text x="368.0" y="766" font-size="24" fill="#8b9ab8" text-anchor="end">Jun 28</text>
    <text x="200.0" y="830" font-size="56" font-weight="800" fill="#f8fafc" text-anchor="middle">11.7k</text>
    <text x="200.0" y="862" font-size="20" fill="#22d3ee" text-anchor="middle">+11.7k since 6</text>
    <text x="200.0" y="890" font-size="16" fill="#5d6b88" text-anchor="middle">through 2026-07-04</text>
  </g>
</svg>
