<svg xmlns="http://www.w3.org/2000/svg" width="400" height="900" viewBox="0 0 400 900" role="img" aria-labelledby="title desc">
  <title id="title">@leonw24/open-codex cumulative npm downloads</title>
  <desc id="desc">Cumulative npm downloads sampled at weekly boundaries across 24 complete 7-day periods. Latest cumulative total: 13156 downloads.</desc>
  <defs>
    <linearGradient id="line" x1="0" x2="0" y1="1" y2="0">
      <stop offset="0%" stop-color="#22d3ee" />
      <stop offset="55%" stop-color="#8b5cf6" />
      <stop offset="100%" stop-color="#f472b6" />
    </linearGradient>
    <linearGradient id="fill" x1="0" x2="0" y1="0" y2="1">
      <stop offset="0%" stop-color="#8b5cf6" stop-opacity="0.22" />
      <stop offset="100%" stop-color="#8b5cf6" stop-opacity="0" />
    </linearGradient>
  </defs>
  <rect width="400" height="900" rx="22" fill="#0b1020" />
  <rect x="1" y="1" width="398" height="898" rx="21" fill="none" stroke="#26324a" />
  <g font-family="Inter, ui-sans-serif, system-ui, -apple-system, BlinkMacSystemFont, Segoe UI, sans-serif">
    <text x="200.0" y="60" font-size="32" font-weight="700" fill="#f8fafc" text-anchor="middle">npm downloads</text>
    <text x="200.0" y="98" font-size="22" fill="#8b9ab8" text-anchor="middle">cumulative · 24 weeks</text>
    <line x1="32" y1="730.0" x2="368" y2="730.0" stroke="#243047" stroke-width="1" />
    <line x1="32" y1="580.0" x2="368" y2="580.0" stroke="#243047" stroke-width="1" />
    <line x1="32" y1="430.0" x2="368" y2="430.0" stroke="#243047" stroke-width="1" />
    <line x1="32" y1="280.0" x2="368" y2="280.0" stroke="#243047" stroke-width="1" />
    <line x1="32" y1="130.0" x2="368" y2="130.0" stroke="#243047" stroke-width="1" />
    <line x1="32" y1="730.0" x2="368" y2="730.0" stroke="#3a4867" stroke-width="1.4" />
    <path d="M 32.0 699.7 L 46.6 687.9 L 61.2 497.5 L 75.8 354.3 L 90.4 264.7 L 105.0 247.9 L 119.7 241.4 L 134.3 240.4 L 148.9 237.7 L 163.5 233.8 L 178.1 228.1 L 192.7 221.8 L 207.3 213.8 L 221.9 201.1 L 236.5 200.6 L 251.1 192.6 L 265.7 184.7 L 280.3 184.4 L 295.0 183.2 L 309.6 182.8 L 324.2 177.0 L 338.8 176.6 L 353.4 172.5 L 368.0 172.4 L 368.0 730.0 L 32.0 730.0 Z" fill="url(#fill)" />
    <path d="M 32.0 699.7 L 46.6 687.9 L 61.2 497.5 L 75.8 354.3 L 90.4 264.7 L 105.0 247.9 L 119.7 241.4 L 134.3 240.4 L 148.9 237.7 L 163.5 233.8 L 178.1 228.1 L 192.7 221.8 L 207.3 213.8 L 221.9 201.1 L 236.5 200.6 L 251.1 192.6 L 265.7 184.7 L 280.3 184.4 L 295.0 183.2 L 309.6 182.8 L 324.2 177.0 L 338.8 176.6 L 353.4 172.5 L 368.0 172.4" fill="none" stroke="url(#line)" stroke-width="6" stroke-linecap="round" stroke-linejoin="round" />
    <circle cx="32.0" cy="699.7" r="8" fill="#8b5cf6" stroke="#dbe7ff" stroke-width="3"><title>716 downloads</title></circle>
    <circle cx="46.6" cy="687.9" r="8" fill="#8b5cf6" stroke="#dbe7ff" stroke-width="3"><title>994 downloads</title></circle>
    <circle cx="61.2" cy="497.5" r="8" fill="#8b5cf6" stroke="#dbe7ff" stroke-width="3"><title>5485 downloads</title></circle>
    <circle cx="75.8" cy="354.3" r="8" fill="#8b5cf6" stroke="#dbe7ff" stroke-width="3"><title>8863 downloads</title></circle>
    <circle cx="90.4" cy="264.7" r="8" fill="#8b5cf6" stroke="#dbe7ff" stroke-width="3"><title>10978 downloads</title></circle>
    <circle cx="105.0" cy="247.9" r="8" fill="#8b5cf6" stroke="#dbe7ff" stroke-width="3"><title>11374 downloads</title></circle>
    <circle cx="119.7" cy="241.4" r="8" fill="#8b5cf6" stroke="#dbe7ff" stroke-width="3"><title>11528 downloads</title></circle>
    <circle cx="134.3" cy="240.4" r="8" fill="#8b5cf6" stroke="#dbe7ff" stroke-width="3"><title>11551 downloads</title></circle>
    <circle cx="148.9" cy="237.7" r="8" fill="#8b5cf6" stroke="#dbe7ff" stroke-width="3"><title>11614 downloads</title></circle>
    <circle cx="163.5" cy="233.8" r="8" fill="#8b5cf6" stroke="#dbe7ff" stroke-width="3"><title>11706 downloads</title></circle>
    <circle cx="178.1" cy="228.1" r="8" fill="#8b5cf6" stroke="#dbe7ff" stroke-width="3"><title>11841 downloads</title></circle>
    <circle cx="192.7" cy="221.8" r="8" fill="#8b5cf6" stroke="#dbe7ff" stroke-width="3"><title>11989 downloads</title></circle>
    <circle cx="207.3" cy="213.8" r="8" fill="#8b5cf6" stroke="#dbe7ff" stroke-width="3"><title>12178 downloads</title></circle>
    <circle cx="221.9" cy="201.1" r="8" fill="#8b5cf6" stroke="#dbe7ff" stroke-width="3"><title>12479 downloads</title></circle>
    <circle cx="236.5" cy="200.6" r="8" fill="#8b5cf6" stroke="#dbe7ff" stroke-width="3"><title>12490 downloads</title></circle>
    <circle cx="251.1" cy="192.6" r="8" fill="#8b5cf6" stroke="#dbe7ff" stroke-width="3"><title>12678 downloads</title></circle>
    <circle cx="265.7" cy="184.7" r="8" fill="#8b5cf6" stroke="#dbe7ff" stroke-width="3"><title>12865 downloads</title></circle>
    <circle cx="280.3" cy="184.4" r="8" fill="#8b5cf6" stroke="#dbe7ff" stroke-width="3"><title>12873 downloads</title></circle>
    <circle cx="295.0" cy="183.2" r="8" fill="#8b5cf6" stroke="#dbe7ff" stroke-width="3"><title>12901 downloads</title></circle>
    <circle cx="309.6" cy="182.8" r="8" fill="#8b5cf6" stroke="#dbe7ff" stroke-width="3"><title>12910 downloads</title></circle>
    <circle cx="324.2" cy="177.0" r="8" fill="#8b5cf6" stroke="#dbe7ff" stroke-width="3"><title>13046 downloads</title></circle>
    <circle cx="338.8" cy="176.6" r="8" fill="#8b5cf6" stroke="#dbe7ff" stroke-width="3"><title>13057 downloads</title></circle>
    <circle cx="353.4" cy="172.5" r="8" fill="#8b5cf6" stroke="#dbe7ff" stroke-width="3"><title>13153 downloads</title></circle>
    <circle cx="368.0" cy="172.4" r="8" fill="#8b5cf6" stroke="#dbe7ff" stroke-width="3"><title>13156 downloads</title></circle>
    <text x="32.0" y="766" font-size="24" fill="#8b9ab8" text-anchor="start">Apr 23</text>
    <text x="207.30434782608697" y="766" font-size="24" fill="#8b9ab8" text-anchor="middle">Jul 16</text>
    <text x="368.0" y="766" font-size="24" fill="#8b9ab8" text-anchor="end">Oct 1</text>
    <text x="200.0" y="830" font-size="56" font-weight="800" fill="#f8fafc" text-anchor="middle">13.2k</text>
    <text x="200.0" y="862" font-size="20" fill="#22d3ee" text-anchor="middle">+12.4k since 716</text>
    <text x="200.0" y="890" font-size="16" fill="#5d6b88" text-anchor="middle">through 2026-10-07</text>
  </g>
</svg>
