<svg xmlns="http://www.w3.org/2000/svg" width="400" height="900" viewBox="0 0 400 900" role="img" aria-labelledby="title desc">
  <title id="title">@leonw24/open-codex cumulative npm downloads</title>
  <desc id="desc">Cumulative npm downloads sampled at weekly boundaries across 17 complete 7-day periods. Latest cumulative total: 12611 downloads.</desc>
  <defs>
    <linearGradient id="line" x1="0" x2="0" y1="1" y2="0">
      <stop offset="0%" stop-color="#22d3ee" />
      <stop offset="55%" stop-color="#8b5cf6" />
      <stop offset="100%" stop-color="#f472b6" />
    </linearGradient>
    <linearGradient id="fill" x1="0" x2="0" y1="0" y2="1">
      <stop offset="0%" stop-color="#8b5cf6" stop-opacity="0.22" />
      <stop offset="100%" stop-color="#8b5cf6" stop-opacity="0" />
    </linearGradient>
  </defs>
  <rect width="400" height="900" rx="22" fill="#0b1020" />
  <rect x="1" y="1" width="398" height="898" rx="21" fill="none" stroke="#26324a" />
  <g font-family="Inter, ui-sans-serif, system-ui, -apple-system, BlinkMacSystemFont, Segoe UI, sans-serif">
    <text x="200.0" y="60" font-size="32" font-weight="700" fill="#f8fafc" text-anchor="middle">npm downloads</text>
    <text x="200.0" y="98" font-size="22" fill="#8b9ab8" text-anchor="middle">cumulative · 17 weeks</text>
    <line x1="32" y1="730.0" x2="368" y2="730.0" stroke="#243047" stroke-width="1" />
    <line x1="32" y1="580.0" x2="368" y2="580.0" stroke="#243047" stroke-width="1" />
    <line x1="32" y1="430.0" x2="368" y2="430.0" stroke="#243047" stroke-width="1" />
    <line x1="32" y1="280.0" x2="368" y2="280.0" stroke="#243047" stroke-width="1" />
    <line x1="32" y1="130.0" x2="368" y2="130.0" stroke="#243047" stroke-width="1" />
    <line x1="32" y1="730.0" x2="368" y2="730.0" stroke="#3a4867" stroke-width="1.4" />
    <path d="M 32.0 729.7 L 53.0 689.8 L 74.0 645.7 L 95.0 404.4 L 116.0 296.5 L 137.0 240.7 L 158.0 226.3 L 179.0 224.0 L 200.0 221.5 L 221.0 219.4 L 242.0 214.9 L 263.0 204.8 L 284.0 197.5 L 305.0 188.2 L 326.0 182.6 L 347.0 178.3 L 368.0 174.1 L 368.0 730.0 L 32.0 730.0 Z" fill="url(#fill)" />
    <path d="M 32.0 729.7 L 53.0 689.8 L 74.0 645.7 L 95.0 404.4 L 116.0 296.5 L 137.0 240.7 L 158.0 226.3 L 179.0 224.0 L 200.0 221.5 L 221.0 219.4 L 242.0 214.9 L 263.0 204.8 L 284.0 197.5 L 305.0 188.2 L 326.0 182.6 L 347.0 178.3 L 368.0 174.1" fill="none" stroke="url(#line)" stroke-width="6" stroke-linecap="round" stroke-linejoin="round" />
    <circle cx="32.0" cy="729.7" r="8" fill="#8b5cf6" stroke="#dbe7ff" stroke-width="3"><title>6 downloads</title></circle>
    <circle cx="53.0" cy="689.8" r="8" fill="#8b5cf6" stroke="#dbe7ff" stroke-width="3"><title>911 downloads</title></circle>
    <circle cx="74.0" cy="645.7" r="8" fill="#8b5cf6" stroke="#dbe7ff" stroke-width="3"><title>1913 downloads</title></circle>
    <circle cx="95.0" cy="404.4" r="8" fill="#8b5cf6" stroke="#dbe7ff" stroke-width="3"><title>7386 downloads</title></circle>
    <circle cx="116.0" cy="296.5" r="8" fill="#8b5cf6" stroke="#dbe7ff" stroke-width="3"><title>9833 downloads</title></circle>
    <circle cx="137.0" cy="240.7" r="8" fill="#8b5cf6" stroke="#dbe7ff" stroke-width="3"><title>11100 downloads</title></circle>
    <circle cx="158.0" cy="226.3" r="8" fill="#8b5cf6" stroke="#dbe7ff" stroke-width="3"><title>11427 downloads</title></circle>
    <circle cx="179.0" cy="224.0" r="8" fill="#8b5cf6" stroke="#dbe7ff" stroke-width="3"><title>11478 downloads</title></circle>
    <circle cx="200.0" cy="221.5" r="8" fill="#8b5cf6" stroke="#dbe7ff" stroke-width="3"><title>11535 downloads</title></circle>
    <circle cx="221.0" cy="219.4" r="8" fill="#8b5cf6" stroke="#dbe7ff" stroke-width="3"><title>11584 downloads</title></circle>
    <circle cx="242.0" cy="214.9" r="8" fill="#8b5cf6" stroke="#dbe7ff" stroke-width="3"><title>11685 downloads</title></circle>
    <circle cx="263.0" cy="204.8" r="8" fill="#8b5cf6" stroke="#dbe7ff" stroke-width="3"><title>11914 downloads</title></circle>
    <circle cx="284.0" cy="197.5" r="8" fill="#8b5cf6" stroke="#dbe7ff" stroke-width="3"><title>12079 downloads</title></circle>
    <circle cx="305.0" cy="188.2" r="8" fill="#8b5cf6" stroke="#dbe7ff" stroke-width="3"><title>12291 downloads</title></circle>
    <circle cx="326.0" cy="182.6" r="8" fill="#8b5cf6" stroke="#dbe7ff" stroke-width="3"><title>12417 downloads</title></circle>
    <circle cx="347.0" cy="178.3" r="8" fill="#8b5cf6" stroke="#dbe7ff" stroke-width="3"><title>12516 downloads</title></circle>
    <circle cx="368.0" cy="174.1" r="8" fill="#8b5cf6" stroke="#dbe7ff" stroke-width="3"><title>12611 downloads</title></circle>
    <text x="32.0" y="766" font-size="24" fill="#8b9ab8" text-anchor="start">Apr 19</text>
    <text x="200.0" y="766" font-size="24" fill="#8b9ab8" text-anchor="middle">Jun 14</text>
    <text x="368.0" y="766" font-size="24" fill="#8b9ab8" text-anchor="end">Aug 9</text>
    <text x="200.0" y="830" font-size="56" font-weight="800" fill="#f8fafc" text-anchor="middle">12.6k</text>
    <text x="200.0" y="862" font-size="20" fill="#22d3ee" text-anchor="middle">+12.6k since 6</text>
    <text x="200.0" y="890" font-size="16" fill="#5d6b88" text-anchor="middle">through 2026-08-15</text>
  </g>
</svg>
