<svg xmlns="http://www.w3.org/2000/svg" width="400" height="900" viewBox="0 0 400 900" role="img" aria-labelledby="title desc">
  <title id="title">@leonw24/open-codex cumulative npm downloads</title>
  <desc id="desc">Cumulative npm downloads sampled at weekly boundaries across 12 complete 7-day periods. Latest cumulative total: 11919 downloads.</desc>
  <defs>
    <linearGradient id="line" x1="0" x2="0" y1="1" y2="0">
      <stop offset="0%" stop-color="#22d3ee" />
      <stop offset="55%" stop-color="#8b5cf6" />
      <stop offset="100%" stop-color="#f472b6" />
    </linearGradient>
    <linearGradient id="fill" x1="0" x2="0" y1="0" y2="1">
      <stop offset="0%" stop-color="#8b5cf6" stop-opacity="0.22" />
      <stop offset="100%" stop-color="#8b5cf6" stop-opacity="0" />
    </linearGradient>
  </defs>
  <rect width="400" height="900" rx="22" fill="#0b1020" />
  <rect x="1" y="1" width="398" height="898" rx="21" fill="none" stroke="#26324a" />
  <g font-family="Inter, ui-sans-serif, system-ui, -apple-system, BlinkMacSystemFont, Segoe UI, sans-serif">
    <text x="200.0" y="60" font-size="32" font-weight="700" fill="#f8fafc" text-anchor="middle">npm downloads</text>
    <text x="200.0" y="98" font-size="22" fill="#8b9ab8" text-anchor="middle">cumulative · 12 weeks</text>
    <line x1="32" y1="730.0" x2="368" y2="730.0" stroke="#243047" stroke-width="1" />
    <line x1="32" y1="580.0" x2="368" y2="580.0" stroke="#243047" stroke-width="1" />
    <line x1="32" y1="430.0" x2="368" y2="430.0" stroke="#243047" stroke-width="1" />
    <line x1="32" y1="280.0" x2="368" y2="280.0" stroke="#243047" stroke-width="1" />
    <line x1="32" y1="130.0" x2="368" y2="130.0" stroke="#243047" stroke-width="1" />
    <line x1="32" y1="730.0" x2="368" y2="730.0" stroke="#3a4867" stroke-width="1.4" />
    <path d="M 32.0 701.7 L 62.5 686.6 L 93.1 489.7 L 123.6 334.9 L 154.2 224.6 L 184.7 212.7 L 215.3 197.9 L 245.8 196.5 L 276.4 193.7 L 306.9 189.5 L 337.5 183.0 L 368.0 176.4 L 368.0 730.0 L 32.0 730.0 Z" fill="url(#fill)" />
    <path d="M 32.0 701.7 L 62.5 686.6 L 93.1 489.7 L 123.6 334.9 L 154.2 224.6 L 184.7 212.7 L 215.3 197.9 L 245.8 196.5 L 276.4 193.7 L 306.9 189.5 L 337.5 183.0 L 368.0 176.4" fill="none" stroke="url(#line)" stroke-width="6" stroke-linecap="round" stroke-linejoin="round" />
    <circle cx="32.0" cy="701.7" r="8" fill="#8b5cf6" stroke="#dbe7ff" stroke-width="3"><title>610 downloads</title></circle>
    <circle cx="62.5" cy="686.6" r="8" fill="#8b5cf6" stroke="#dbe7ff" stroke-width="3"><title>934 downloads</title></circle>
    <circle cx="93.1" cy="489.7" r="8" fill="#8b5cf6" stroke="#dbe7ff" stroke-width="3"><title>5175 downloads</title></circle>
    <circle cx="123.6" cy="334.9" r="8" fill="#8b5cf6" stroke="#dbe7ff" stroke-width="3"><title>8507 downloads</title></circle>
    <circle cx="154.2" cy="224.6" r="8" fill="#8b5cf6" stroke="#dbe7ff" stroke-width="3"><title>10883 downloads</title></circle>
    <circle cx="184.7" cy="212.7" r="8" fill="#8b5cf6" stroke="#dbe7ff" stroke-width="3"><title>11138 downloads</title></circle>
    <circle cx="215.3" cy="197.9" r="8" fill="#8b5cf6" stroke="#dbe7ff" stroke-width="3"><title>11457 downloads</title></circle>
    <circle cx="245.8" cy="196.5" r="8" fill="#8b5cf6" stroke="#dbe7ff" stroke-width="3"><title>11488 downloads</title></circle>
    <circle cx="276.4" cy="193.7" r="8" fill="#8b5cf6" stroke="#dbe7ff" stroke-width="3"><title>11548 downloads</title></circle>
    <circle cx="306.9" cy="189.5" r="8" fill="#8b5cf6" stroke="#dbe7ff" stroke-width="3"><title>11638 downloads</title></circle>
    <circle cx="337.5" cy="183.0" r="8" fill="#8b5cf6" stroke="#dbe7ff" stroke-width="3"><title>11778 downloads</title></circle>
    <circle cx="368.0" cy="176.4" r="8" fill="#8b5cf6" stroke="#dbe7ff" stroke-width="3"><title>11919 downloads</title></circle>
    <text x="32.0" y="766" font-size="24" fill="#8b9ab8" text-anchor="start">Apr 22</text>
    <text x="215.27272727272728" y="766" font-size="24" fill="#8b9ab8" text-anchor="middle">Jun 3</text>
    <text x="368.0" y="766" font-size="24" fill="#8b9ab8" text-anchor="end">Jul 8</text>
    <text x="200.0" y="830" font-size="56" font-weight="800" fill="#f8fafc" text-anchor="middle">11.9k</text>
    <text x="200.0" y="862" font-size="20" fill="#22d3ee" text-anchor="middle">+11.3k since 610</text>
    <text x="200.0" y="890" font-size="16" fill="#5d6b88" text-anchor="middle">through 2026-07-14</text>
  </g>
</svg>
